<mxfile host="Electron" agent="Mozilla/5.0 (X11; Linux x86_64) AppleWebKit/537.36 (KHTML, like Gecko) draw.io/25.0.2 Chrome/128.0.6613.186 Electron/32.2.5 Safari/537.36" version="25.0.2">
  <diagram name="Page-1" id="5hRo1ph_KdoSBou32TR-">
    <mxGraphModel dx="2045" dy="697" grid="1" gridSize="10" guides="1" tooltips="1" connect="1" arrows="1" fold="1" page="1" pageScale="1" pageWidth="850" pageHeight="1100" math="1" shadow="0">
      <root>
        <mxCell id="0" />
        <mxCell id="1" parent="0" />
        <mxCell id="zajFY2R4KQU5Q2vsCuMc-1" value="Ferrofluid" style="rounded=0;whiteSpace=wrap;html=1;fillColor=#60a917;fontColor=#ffffff;strokeColor=#2D7600;" vertex="1" parent="1">
          <mxGeometry x="680" y="330" width="120" height="60" as="geometry" />
        </mxCell>
        <mxCell id="zajFY2R4KQU5Q2vsCuMc-16" style="edgeStyle=orthogonalEdgeStyle;rounded=0;orthogonalLoop=1;jettySize=auto;html=1;entryX=0;entryY=0.5;entryDx=0;entryDy=0;" edge="1" parent="1" source="zajFY2R4KQU5Q2vsCuMc-2" target="zajFY2R4KQU5Q2vsCuMc-1">
          <mxGeometry relative="1" as="geometry" />
        </mxCell>
        <mxCell id="zajFY2R4KQU5Q2vsCuMc-2" value="Electromagnet" style="rounded=0;whiteSpace=wrap;html=1;fillColor=#fff2cc;strokeColor=#d6b656;" vertex="1" parent="1">
          <mxGeometry x="540" y="330" width="120" height="60" as="geometry" />
        </mxCell>
        <mxCell id="zajFY2R4KQU5Q2vsCuMc-3" value="$$n=?$$" style="rounded=0;whiteSpace=wrap;html=1;" vertex="1" parent="1">
          <mxGeometry x="540" y="390" width="120" height="80" as="geometry" />
        </mxCell>
        <mxCell id="zajFY2R4KQU5Q2vsCuMc-14" style="edgeStyle=orthogonalEdgeStyle;rounded=0;orthogonalLoop=1;jettySize=auto;html=1;entryX=0;entryY=0.5;entryDx=0;entryDy=0;" edge="1" parent="1" source="zajFY2R4KQU5Q2vsCuMc-4" target="zajFY2R4KQU5Q2vsCuMc-5">
          <mxGeometry relative="1" as="geometry" />
        </mxCell>
        <mxCell id="zajFY2R4KQU5Q2vsCuMc-4" value="DAC" style="rounded=0;whiteSpace=wrap;html=1;fillColor=#f8cecc;strokeColor=#b85450;" vertex="1" parent="1">
          <mxGeometry x="260" y="330" width="120" height="60" as="geometry" />
        </mxCell>
        <mxCell id="zajFY2R4KQU5Q2vsCuMc-15" style="edgeStyle=orthogonalEdgeStyle;rounded=0;orthogonalLoop=1;jettySize=auto;html=1;entryX=0;entryY=0.5;entryDx=0;entryDy=0;" edge="1" parent="1" source="zajFY2R4KQU5Q2vsCuMc-5" target="zajFY2R4KQU5Q2vsCuMc-2">
          <mxGeometry relative="1" as="geometry" />
        </mxCell>
        <mxCell id="zajFY2R4KQU5Q2vsCuMc-5" value="Amplifier" style="rounded=0;whiteSpace=wrap;html=1;fillColor=#f8cecc;strokeColor=#b85450;" vertex="1" parent="1">
          <mxGeometry x="400" y="330" width="120" height="60" as="geometry" />
        </mxCell>
        <mxCell id="zajFY2R4KQU5Q2vsCuMc-6" value="Required response time? i.e. is a simple MOSFET enough or do we want some RF shit?" style="rounded=0;whiteSpace=wrap;html=1;" vertex="1" parent="1">
          <mxGeometry x="400" y="390" width="120" height="80" as="geometry" />
        </mxCell>
        <mxCell id="zajFY2R4KQU5Q2vsCuMc-13" style="edgeStyle=orthogonalEdgeStyle;rounded=0;orthogonalLoop=1;jettySize=auto;html=1;entryX=0;entryY=0.5;entryDx=0;entryDy=0;" edge="1" parent="1" source="zajFY2R4KQU5Q2vsCuMc-7" target="zajFY2R4KQU5Q2vsCuMc-4">
          <mxGeometry relative="1" as="geometry" />
        </mxCell>
        <mxCell id="zajFY2R4KQU5Q2vsCuMc-7" value="CPU" style="rounded=0;whiteSpace=wrap;html=1;fillColor=#f8cecc;strokeColor=#b85450;" vertex="1" parent="1">
          <mxGeometry x="120" y="330" width="120" height="60" as="geometry" />
        </mxCell>
        <mxCell id="zajFY2R4KQU5Q2vsCuMc-12" style="edgeStyle=orthogonalEdgeStyle;rounded=0;orthogonalLoop=1;jettySize=auto;html=1;entryX=0;entryY=0.5;entryDx=0;entryDy=0;" edge="1" parent="1" source="zajFY2R4KQU5Q2vsCuMc-8" target="zajFY2R4KQU5Q2vsCuMc-7">
          <mxGeometry relative="1" as="geometry" />
        </mxCell>
        <mxCell id="zajFY2R4KQU5Q2vsCuMc-8" value="ADC" style="rounded=0;whiteSpace=wrap;html=1;fillColor=#f8cecc;strokeColor=#b85450;" vertex="1" parent="1">
          <mxGeometry x="-20" y="330" width="120" height="60" as="geometry" />
        </mxCell>
        <mxCell id="zajFY2R4KQU5Q2vsCuMc-11" style="edgeStyle=orthogonalEdgeStyle;rounded=0;orthogonalLoop=1;jettySize=auto;html=1;entryX=0;entryY=0.5;entryDx=0;entryDy=0;" edge="1" parent="1" source="zajFY2R4KQU5Q2vsCuMc-9" target="zajFY2R4KQU5Q2vsCuMc-8">
          <mxGeometry relative="1" as="geometry" />
        </mxCell>
        <mxCell id="zajFY2R4KQU5Q2vsCuMc-9" value="Microphone" style="rounded=0;whiteSpace=wrap;html=1;fillColor=#dae8fc;strokeColor=#6c8ebf;" vertex="1" parent="1">
          <mxGeometry x="-180" y="330" width="140" height="60" as="geometry" />
        </mxCell>
        <mxCell id="zajFY2R4KQU5Q2vsCuMc-17" value="KY-037" style="swimlane;fontStyle=0;childLayout=stackLayout;horizontal=1;startSize=30;horizontalStack=0;resizeParent=1;resizeParentMax=0;resizeLast=0;collapsible=1;marginBottom=0;whiteSpace=wrap;html=1;" vertex="1" parent="1">
          <mxGeometry x="-180" y="390" width="140" height="580" as="geometry" />
        </mxCell>
        <mxCell id="zajFY2R4KQU5Q2vsCuMc-18" value="frequency range: 50Hz ... 22kHz (i.e. bandwidth?)" style="text;strokeColor=none;fillColor=none;align=left;verticalAlign=middle;spacingLeft=4;spacingRight=4;overflow=hidden;points=[[0,0.5],[1,0.5]];portConstraint=eastwest;rotatable=0;whiteSpace=wrap;html=1;" vertex="1" parent="zajFY2R4KQU5Q2vsCuMc-17">
          <mxGeometry y="30" width="140" height="60" as="geometry" />
        </mxCell>
        <mxCell id="zajFY2R4KQU5Q2vsCuMc-19" value="sensitivity: 48...68dB" style="text;strokeColor=none;fillColor=none;align=left;verticalAlign=middle;spacingLeft=4;spacingRight=4;overflow=hidden;points=[[0,0.5],[1,0.5]];portConstraint=eastwest;rotatable=0;whiteSpace=wrap;html=1;" vertex="1" parent="zajFY2R4KQU5Q2vsCuMc-17">
          <mxGeometry y="90" width="140" height="30" as="geometry" />
        </mxCell>
        <mxCell id="zajFY2R4KQU5Q2vsCuMc-20" value="impedance 2.2kOhm" style="text;strokeColor=none;fillColor=none;align=left;verticalAlign=middle;spacingLeft=4;spacingRight=4;overflow=hidden;points=[[0,0.5],[1,0.5]];portConstraint=eastwest;rotatable=0;whiteSpace=wrap;html=1;" vertex="1" parent="zajFY2R4KQU5Q2vsCuMc-17">
          <mxGeometry y="120" width="140" height="50" as="geometry" />
        </mxCell>
        <mxCell id="zajFY2R4KQU5Q2vsCuMc-22" value="4 pins: power supply+gnd, digital (D0), analog (A0)" style="text;strokeColor=none;fillColor=none;align=left;verticalAlign=middle;spacingLeft=4;spacingRight=4;overflow=hidden;points=[[0,0.5],[1,0.5]];portConstraint=eastwest;rotatable=0;whiteSpace=wrap;html=1;" vertex="1" parent="zajFY2R4KQU5Q2vsCuMc-17">
          <mxGeometry y="170" width="140" height="50" as="geometry" />
        </mxCell>
        <mxCell id="zajFY2R4KQU5Q2vsCuMc-23" value="analog pin: reads real time voltage signal of microphone" style="text;strokeColor=none;fillColor=none;align=left;verticalAlign=middle;spacingLeft=4;spacingRight=4;overflow=hidden;points=[[0,0.5],[1,0.5]];portConstraint=eastwest;rotatable=0;whiteSpace=wrap;html=1;" vertex="1" parent="zajFY2R4KQU5Q2vsCuMc-17">
          <mxGeometry y="220" width="140" height="50" as="geometry" />
        </mxCell>
        <mxCell id="zajFY2R4KQU5Q2vsCuMc-24" value="digital: high or low, depending on threshold (--&amp;gt; amplitude? i.e. instantaneous energy in a signal, i.e. integrated instantaneous energy?)" style="text;strokeColor=none;fillColor=none;align=left;verticalAlign=middle;spacingLeft=4;spacingRight=4;overflow=hidden;points=[[0,0.5],[1,0.5]];portConstraint=eastwest;rotatable=0;whiteSpace=wrap;html=1;" vertex="1" parent="zajFY2R4KQU5Q2vsCuMc-17">
          <mxGeometry y="270" width="140" height="110" as="geometry" />
        </mxCell>
        <mxCell id="zajFY2R4KQU5Q2vsCuMc-25" value="DISADVANTAGES:" style="text;strokeColor=none;fillColor=none;align=left;verticalAlign=middle;spacingLeft=4;spacingRight=4;overflow=hidden;points=[[0,0.5],[1,0.5]];portConstraint=eastwest;rotatable=0;whiteSpace=wrap;html=1;" vertex="1" parent="zajFY2R4KQU5Q2vsCuMc-17">
          <mxGeometry y="380" width="140" height="50" as="geometry" />
        </mxCell>
        <mxCell id="zajFY2R4KQU5Q2vsCuMc-26" value="according to some forums, bandwidth is too small to accomodate sophisticated signal analysis" style="text;strokeColor=none;fillColor=none;align=left;verticalAlign=middle;spacingLeft=4;spacingRight=4;overflow=hidden;points=[[0,0.5],[1,0.5]];portConstraint=eastwest;rotatable=0;whiteSpace=wrap;html=1;" vertex="1" parent="zajFY2R4KQU5Q2vsCuMc-17">
          <mxGeometry y="430" width="140" height="50" as="geometry" />
        </mxCell>
        <mxCell id="zajFY2R4KQU5Q2vsCuMc-27" value="DISADVANTAGES:" style="text;strokeColor=none;fillColor=none;align=left;verticalAlign=middle;spacingLeft=4;spacingRight=4;overflow=hidden;points=[[0,0.5],[1,0.5]];portConstraint=eastwest;rotatable=0;whiteSpace=wrap;html=1;" vertex="1" parent="zajFY2R4KQU5Q2vsCuMc-17">
          <mxGeometry y="480" width="140" height="50" as="geometry" />
        </mxCell>
        <mxCell id="zajFY2R4KQU5Q2vsCuMc-28" value="DISADVANTAGES:" style="text;strokeColor=none;fillColor=none;align=left;verticalAlign=middle;spacingLeft=4;spacingRight=4;overflow=hidden;points=[[0,0.5],[1,0.5]];portConstraint=eastwest;rotatable=0;whiteSpace=wrap;html=1;" vertex="1" parent="zajFY2R4KQU5Q2vsCuMc-17">
          <mxGeometry y="530" width="140" height="50" as="geometry" />
        </mxCell>
      </root>
    </mxGraphModel>
  </diagram>
</mxfile>
